<?xml version="1.0" encoding="utf-8"?>
<!-- Generator: Adobe Illustrator 22.1.0, SVG Export Plug-In . SVG Version: 6.00 Build 0)  -->
<svg version="1.1" id="Layer_1" xmlns="http://www.w3.org/2000/svg" xmlns:xlink="http://www.w3.org/1999/xlink" x="0px" y="0px"
	 viewBox="0 0 595 326" style="enable-background:new 0 0 595 326;" xml:space="preserve">
<style type="text/css">
	.st0{fill:#ED4F9A;}
	.st1{fill:#98C93C;}
	.st2{fill:#ED2C24;}
	.st3{fill:#4C63AD;}
	.st4{fill-rule:evenodd;clip-rule:evenodd;fill:url(#SVGID_1_);stroke:url(#SVGID_2_);stroke-width:4;stroke-miterlimit:10;}
	.st5{fill:none;}
	.st6{font-family:'LibreBaskerville-Regular';}
	.st7{font-size:18px;}
</style>
<g>
	<g>
		<g id="XMLID_45_">
			<path class="st0" d="M272.4,164.2c0,0-5.5-32.6,27.2-44.2c32.7-11.5,33-25.6,33-25.6s45.1,34.4,7,69.7l-33.6,16L272.4,164.2z"/>
		</g>
		<g id="XMLID_44_">
			<path class="st0" d="M295.7,189.7c0,0,5.5,32.6-27.2,44.2c-32.7,11.5-33,25.6-33,25.6s-45.1-34.4-7-69.7l33.6-16L295.7,189.7z"/>
		</g>
		<path class="st1" d="M263.5,176.7c0,0-33.7-20.1-21.1-46.1c12.6-26.1,0-36.2,0-36.2s63.3-0.4,68.6,45.5l-9.1,29.7L263.5,176.7z"/>
		<path class="st1" d="M303.9,179.5c0,0,33.7,20.1,21.1,46.1c-12.6,26.1,0,36.2,0,36.2s-63.3,0.4-68.6-45.5l9.1-29.7L303.9,179.5z"
			/>
		<g id="XMLID_43_">
			<path class="st2" d="M287.4,161.5c0,0,25.9-26.1,59.6-16.3c33.7,9.7,46.7,0,46.7,0s0.5,49-58.8,53.1l-38.4-7.1L287.4,161.5z"/>
		</g>
		<g id="XMLID_42_">
			<path class="st2" d="M280.6,192.3c0,0-25.9,26.1-59.6,16.3c-33.7-9.7-46.7,0-46.7,0s-0.5-49,58.8-53.1l38.4,7.1L280.6,192.3z"/>
		</g>
		<g id="XMLID_41_">
			<path class="st3" d="M296.1,168.5c0,0,42.2-4.2,57.1,21.1c14.9,25.3,33,25.6,33,25.6s-44.4,34.9-90.1,5.4l-20.7-26L296.1,168.5z"
				/>
		</g>
		<g id="XMLID_40_">
			<path class="st3" d="M264.4,186.5c0,0-42.2,4.2-57.1-21.1c-14.9-25.3-33-25.6-33-25.6s44.4-34.9,90.1-5.4l20.7,26L264.4,186.5z"
				/>
		</g>
		<linearGradient id="SVGID_1_" gradientUnits="userSpaceOnUse" x1="261.9662" y1="155.9044" x2="303.5762" y2="197.5144">
			<stop  offset="0" style="stop-color:#FFFFFF"/>
			<stop  offset="2.680486e-02" style="stop-color:#CFEDF3"/>
			<stop  offset="6.086304e-02" style="stop-color:#99D9E5"/>
			<stop  offset="9.530314e-02" style="stop-color:#6AC7D9"/>
			<stop  offset="0.1294" style="stop-color:#44B9CF"/>
			<stop  offset="0.163" style="stop-color:#26AEC8"/>
			<stop  offset="0.1961" style="stop-color:#11A6C2"/>
			<stop  offset="0.2284" style="stop-color:#04A2BF"/>
			<stop  offset="0.2589" style="stop-color:#00A0BE"/>
			<stop  offset="0.2759" style="stop-color:#11A7C2"/>
			<stop  offset="0.378" style="stop-color:#76CCDC"/>
			<stop  offset="0.4604" style="stop-color:#C0E7EF"/>
			<stop  offset="0.5189" style="stop-color:#EDF8FB"/>
			<stop  offset="0.5482" style="stop-color:#FFFFFF"/>
			<stop  offset="0.5827" style="stop-color:#F7FCFD"/>
			<stop  offset="0.6356" style="stop-color:#E2F4F8"/>
			<stop  offset="0.7005" style="stop-color:#BFE7EF"/>
			<stop  offset="0.7748" style="stop-color:#8ED5E2"/>
			<stop  offset="0.857" style="stop-color:#4FBDD2"/>
			<stop  offset="0.9448" style="stop-color:#04A2BF"/>
			<stop  offset="0.9492" style="stop-color:#00A0BE"/>
		</linearGradient>
		<linearGradient id="SVGID_2_" gradientUnits="userSpaceOnUse" x1="247.8686" y1="176.7094" x2="317.6738" y2="176.7094">
			<stop  offset="4.486252e-02" style="stop-color:#BD792A"/>
			<stop  offset="7.576112e-02" style="stop-color:#C68A39"/>
			<stop  offset="0.1368" style="stop-color:#DDB75E"/>
			<stop  offset="0.1896" style="stop-color:#F3E283"/>
			<stop  offset="0.2776" style="stop-color:#D7AC55"/>
			<stop  offset="0.3674" style="stop-color:#BD792A"/>
			<stop  offset="0.5348" style="stop-color:#F5D064"/>
			<stop  offset="0.6719" style="stop-color:#BD792A"/>
			<stop  offset="0.7992" style="stop-color:#D78E29"/>
			<stop  offset="0.861" style="stop-color:#D8902B"/>
			<stop  offset="0.8833" style="stop-color:#DB9731"/>
			<stop  offset="0.8992" style="stop-color:#E0A23B"/>
			<stop  offset="0.912" style="stop-color:#E8B34A"/>
			<stop  offset="0.9229" style="stop-color:#F2C95E"/>
			<stop  offset="0.9257" style="stop-color:#F5D064"/>
			<stop  offset="1" style="stop-color:#BD792A"/>
		</linearGradient>
		<ellipse class="st4" cx="282.8" cy="176.7" rx="32.9" ry="25.5"/>
		<path class="st3" d="M200,241c0,0,2.2,4.8-8.8,16.5c-5.9,6.3-22.2,9.2-26,20c-3.7,10.8,6.3,21.8,25.1,22.5
			c18.8,0.8,25.6-12.7,21.8-31.3C208.4,250.1,200,241,200,241z"/>
		<path class="st0" d="M145.6,140.3c0,0,0.4,5.1-14.2,14.1c-7.8,4.8-24.6,4.2-32,13.8c-7.4,9.6-1.6,22.3,16.2,26.9
			c17.8,4.7,29.1-6.9,32-25.5C150.4,150.9,145.6,140.3,145.6,140.3z"/>
		<path class="st3" d="M258.9,87.8c0,0,0.8-5.1,17.3-11.9c8.8-3.7,25.2-0.7,34.7-9.2c9.5-8.5,6.7-21.7-9.8-28.8
			c-16.4-7-30.2,2.7-37.3,20.7C256.6,76.7,258.9,87.8,258.9,87.8z"/>
		<path class="st1" d="M476.9,132.1c0,0-3.8,4.2-22.5,4.2c-10,0-22.6-8.6-36.1-4.6c-13.5,4-19.1,16.7-9,28.9
			c10.2,12.2,28.3,8.6,45.6-4.6C472.2,142.7,476.9,132.1,476.9,132.1z"/>
		<path class="st2" d="M417.5,242.5c0,0-3.4,4.4-22,5.5c-10,0.6-23.4-7.2-36.5-2.4c-13.1,4.8-17.4,17.8-6,29.4
			c11.4,11.6,29.1,6.9,45-7.3C413.9,253.3,417.5,242.5,417.5,242.5z"/>
	</g>
	<polygon class="st5" points="239,44.2 243.7,44.2 243.7,44.2 239,44.2 	"/>
	<g>
		<text transform="matrix(1.3452 0 0 1 330.7578 55.9023)" class="st6 st7">Caring</text>
	</g>
	<g>
		<text transform="matrix(1.3452 0 0 1 423.4814 234.6387)" class="st6 st7">Creative</text>
	</g>
	<g>
		<text transform="matrix(1.3452 0 0 1 11.082 247.7549)" class="st6 st7">Inspirational</text>
	</g>
	<g>
		<text transform="matrix(1.4294 0 0 1 409.8447 111.6582)" class="st6 st7">Imaginative</text>
	</g>
	<g>
		<text transform="matrix(1.3452 0 0 1 44.7256 155.2197)" class="st6 st7">Fun</text>
	</g>
	<g>
		<text transform="matrix(1.3452 0 0 1 104.3848 87.4688)" class="st6 st7">Nuturing</text>
	</g>
	<g>
		<text transform="matrix(1.2242 0 0 1 181.9316 28.7002)" class="st6 st7">We are:</text>
	</g>
</g>
</svg>
