<?xml version="1.0" encoding="utf-8"?>
<!-- Generator: Adobe Illustrator 22.1.0, SVG Export Plug-In . SVG Version: 6.00 Build 0)  -->
<svg version="1.1" id="Layer_1" xmlns="http://www.w3.org/2000/svg" xmlns:xlink="http://www.w3.org/1999/xlink" x="0px" y="0px"
	 viewBox="0 0 226 81" style="enable-background:new 0 0 226 81;" xml:space="preserve">
<style type="text/css">
	.st0{fill:#ED4F9A;}
	.st1{fill:#98C93C;}
	.st2{fill:#ED2C24;}
	.st3{fill:#4C63AD;}
	.st4{fill-rule:evenodd;clip-rule:evenodd;fill:url(#SVGID_1_);stroke:url(#SVGID_2_);stroke-width:0.75;stroke-miterlimit:10;}
</style>
<g>
	<path d="M22.1,31.3c0,0.9-0.1,1.8-0.4,2.5c-0.3,0.7-0.8,1.4-1.4,1.9c-0.6,0.5-1.5,0.9-2.5,1.2c-1,0.3-2.3,0.4-3.7,0.4h-2.4v5.2
		c0,0.7,0,1.2,0.1,1.6c0.1,0.4,0.2,0.7,0.5,1c0.3,0.2,0.6,0.4,1.1,0.5c0.5,0.1,1.1,0.1,1.9,0.1v1H6v-1c0.6,0,1.1-0.1,1.5-0.2
		c0.4-0.1,0.7-0.2,0.9-0.5c0.2-0.2,0.3-0.5,0.4-0.9c0.1-0.4,0.1-0.9,0.1-1.5V30.2c0-0.6,0-1.1-0.1-1.5c-0.1-0.4-0.2-0.7-0.4-0.9
		c-0.2-0.2-0.5-0.4-0.8-0.5c-0.4-0.1-0.8-0.1-1.4-0.2v-1h8.2c2.4,0,4.3,0.5,5.6,1.4C21.4,28.4,22.1,29.7,22.1,31.3z M11.6,36h1.9
		c1.7,0,3-0.3,3.9-1c0.8-0.7,1.3-1.8,1.3-3.4c0-1.5-0.3-2.6-1-3.2c-0.7-0.7-1.7-1-3.2-1h-2.4c-0.3,0-0.4,0.2-0.4,0.5V36z"/>
	<path d="M35.8,44.2c-1.5,1.8-3.3,2.8-5.5,2.8c-1,0-2-0.2-2.8-0.5c-0.8-0.3-1.6-0.8-2.2-1.5c-0.6-0.6-1.1-1.4-1.4-2.3
		c-0.3-0.9-0.5-1.9-0.5-2.9c0-1.1,0.2-2.1,0.5-3c0.3-0.9,0.8-1.7,1.5-2.4c0.6-0.7,1.4-1.2,2.3-1.6c0.9-0.4,1.9-0.6,2.9-0.6
		c1.7,0,3,0.5,3.9,1.4c0.9,0.9,1.4,2.3,1.4,4c0,0.2,0,0.4-0.1,0.5c-0.1,0.1-0.3,0.1-0.7,0.1h-8.6c0,0.1-0.1,0.3-0.1,0.5
		c0,0.2,0,0.4,0,0.7c0,0.9,0.1,1.8,0.3,2.5c0.2,0.8,0.5,1.4,0.9,1.9c0.4,0.5,0.9,0.9,1.5,1.2c0.6,0.3,1.2,0.4,1.9,0.4
		c0.7,0,1.4-0.2,2-0.5c0.6-0.3,1.3-0.9,1.9-1.6L35.8,44.2z M31.4,37c0.3,0,0.6,0,0.8,0c0.2,0,0.4-0.1,0.5-0.1
		c0.1-0.1,0.2-0.1,0.2-0.2c0-0.1,0.1-0.2,0.1-0.4c0-0.8-0.3-1.5-0.8-2c-0.5-0.5-1.2-0.7-2.1-0.7c-1.9,0-3.1,1.2-3.5,3.4H31.4z"/>
	<path d="M38.2,34.2v-1c0.9-0.6,1.7-1.1,2.2-1.7c0.5-0.6,0.9-1.2,1.2-2h0.8V33h3.5v1.3h-3.5v8.1c0,0.6,0,1.2,0.1,1.6
		c0.1,0.4,0.2,0.8,0.3,1c0.1,0.3,0.3,0.4,0.6,0.5c0.2,0.1,0.5,0.2,0.9,0.2c0.4,0,0.8-0.1,1.1-0.3c0.3-0.2,0.6-0.5,0.9-0.9l0.7,0.5
		c-0.2,0.7-0.7,1.2-1.3,1.5c-0.6,0.3-1.4,0.5-2.2,0.5c-1.2,0-2-0.3-2.6-0.8c-0.6-0.6-0.9-1.4-0.9-2.4v-9.5H38.2z"/>
	<path d="M56.2,37.7v-1.1c0-2.2-0.9-3.3-2.7-3.3c-0.3,0-0.6,0-0.8,0.1c-0.2,0.1-0.4,0.1-0.5,0.3c-0.1,0.1-0.3,0.3-0.4,0.5
		c-0.1,0.2-0.2,0.5-0.3,0.9c-0.2,0.5-0.4,0.9-0.6,1c-0.2,0.2-0.5,0.3-0.8,0.3c-0.9,0-1.3-0.4-1.3-1.3c0-0.9,0.4-1.5,1.3-2
		c0.9-0.5,2.2-0.7,3.8-0.7c1.7,0,3,0.3,3.7,0.9c0.7,0.6,1.1,1.7,1.1,3.2v6c0,2,0.4,3,1.2,3c0.2,0,0.5,0,0.7-0.1
		c0.2-0.1,0.4-0.2,0.6-0.5l0.4,0.6c-0.2,0.4-0.6,0.8-1.2,1c-0.6,0.3-1.1,0.4-1.8,0.4c-0.8,0-1.3-0.2-1.7-0.7
		c-0.4-0.5-0.6-1.2-0.6-2.1h-0.1c-0.5,0.9-1.1,1.6-1.9,2.1c-0.8,0.5-1.7,0.8-2.7,0.8c-1.1,0-2-0.3-2.6-0.9c-0.6-0.6-0.9-1.3-0.9-2.3
		c0-0.4,0.1-0.8,0.2-1.2c0.1-0.4,0.4-0.8,0.7-1.1c0.3-0.4,0.8-0.7,1.3-1.1c0.5-0.3,1.2-0.7,2-1.1L56.2,37.7z M56.2,38.8
		c-1,0.4-1.8,0.8-2.5,1.2c-0.7,0.4-1.2,0.7-1.7,1.1c-0.4,0.4-0.7,0.7-0.9,1.1c-0.2,0.4-0.3,0.8-0.3,1.2c0,0.6,0.2,1.1,0.6,1.4
		c0.4,0.4,0.9,0.6,1.5,0.6c0.5,0,0.9-0.1,1.3-0.3c0.4-0.2,0.7-0.5,1-0.9c0.3-0.4,0.5-0.9,0.7-1.4c0.2-0.5,0.3-1.1,0.3-1.7V38.8z"/>
	<path d="M67,42.6c0,0.7,0,1.2,0.1,1.6c0.1,0.4,0.2,0.7,0.3,1c0.2,0.2,0.4,0.4,0.7,0.5c0.3,0.1,0.7,0.1,1.2,0.2v0.9h-7.2v-0.9
		c0.5,0,0.9-0.1,1.3-0.2c0.3-0.1,0.6-0.3,0.7-0.5s0.3-0.5,0.4-0.9c0.1-0.4,0.1-0.9,0.1-1.5V31.2c0-1,0-1.8,0-2.4
		c0-0.7-0.1-1.1-0.1-1.3c-0.1-0.4-0.3-0.7-0.6-0.8c-0.3-0.1-0.9-0.2-1.7-0.2v-0.9l5-1V42.6z"/>
	<path d="M72.3,46.7h-0.6v-4.6h0.7c0.7,2.5,1.9,3.8,3.7,3.8c0.7,0,1.3-0.2,1.7-0.5c0.4-0.3,0.6-0.9,0.6-1.6c0-0.3,0-0.5-0.1-0.7
		c-0.1-0.2-0.2-0.4-0.4-0.6c-0.2-0.2-0.5-0.4-0.9-0.7c-0.4-0.3-0.9-0.6-1.6-1c-0.6-0.4-1.1-0.7-1.5-1c-0.4-0.3-0.8-0.6-1.1-1
		c-0.3-0.3-0.5-0.7-0.7-1.1c-0.1-0.4-0.2-0.8-0.2-1.3c0-0.6,0.1-1.2,0.3-1.7c0.2-0.5,0.5-0.9,0.8-1.3c0.3-0.4,0.8-0.6,1.2-0.8
		c0.5-0.2,1-0.3,1.5-0.3c0.5,0,1,0.1,1.5,0.2c0.5,0.2,1,0.4,1.3,0.6l0.5-0.6h0.5v3.9h-0.7c-0.4-1.1-0.8-1.9-1.3-2.3
		c-0.5-0.5-1-0.7-1.7-0.7c-0.6,0-1.1,0.2-1.4,0.5c-0.4,0.3-0.5,0.8-0.5,1.3c0,0.3,0,0.6,0.1,0.8c0.1,0.2,0.2,0.4,0.5,0.7
		c0.2,0.2,0.5,0.4,0.8,0.7c0.3,0.2,0.7,0.5,1.2,0.8c0.8,0.5,1.4,0.9,1.9,1.3c0.5,0.4,1,0.7,1.3,1.1c0.3,0.4,0.6,0.7,0.7,1.1
		c0.2,0.4,0.2,0.8,0.2,1.3c0,1.3-0.4,2.3-1.2,3c-0.8,0.7-1.9,1.1-3.2,1.1c-1.4,0-2.5-0.4-3.5-1.2L72.3,46.7z"/>
	<path d="M108.5,38.4c0,1.4-0.1,2.6-0.4,3.7c-0.3,1.1-0.7,2-1.3,2.7c-0.6,0.7-1.4,1.3-2.3,1.6c-1,0.4-2.1,0.5-3.5,0.5
		c-1.3,0-2.4-0.1-3.4-0.4c-1-0.3-1.8-0.7-2.4-1.3c-0.6-0.6-1.1-1.4-1.4-2.3c-0.3-1-0.5-2.1-0.5-3.6v-7.1c0-1.3,0-2.3-0.1-3
		c-0.1-0.7-0.2-1.2-0.5-1.6c-0.2-0.2-0.5-0.4-0.9-0.5c-0.4-0.1-0.8-0.1-1.4-0.1v-1h8.9v1c-0.6,0-1.1,0-1.4,0.1
		c-0.4,0.1-0.7,0.2-0.9,0.5c-0.2,0.3-0.4,0.8-0.5,1.5c-0.1,0.7-0.1,1.7-0.1,3v7.3c0,0.9,0.1,1.7,0.3,2.4c0.2,0.7,0.5,1.3,0.9,1.8
		c0.4,0.5,1,0.9,1.6,1.1c0.7,0.2,1.5,0.4,2.5,0.4c1.7,0,3.1-0.5,3.9-1.5c0.9-1,1.3-2.4,1.3-4.4V33c0-1.6-0.1-2.8-0.2-3.6
		c-0.1-0.8-0.4-1.4-0.7-1.7c-0.2-0.2-0.6-0.4-0.9-0.4c-0.4-0.1-0.8-0.1-1.4-0.1v-1h7.6v1c-0.6,0-1,0-1.4,0.1
		c-0.4,0.1-0.6,0.3-0.9,0.6c-0.3,0.4-0.4,1-0.5,1.8c-0.1,0.8-0.1,1.9-0.1,3.4V38.4z"/>
	<path d="M117,42.5c0,0.7,0,1.3,0.1,1.7c0,0.4,0.1,0.7,0.3,1c0.1,0.2,0.4,0.4,0.7,0.4c0.3,0.1,0.7,0.1,1.2,0.2v0.9h-6.9v-0.9
		c0.5,0,0.9-0.1,1.2-0.2c0.3-0.1,0.5-0.2,0.7-0.4c0.2-0.2,0.3-0.5,0.3-0.9c0-0.4,0.1-0.9,0.1-1.6v-3.6c0-2.1-0.1-3.4-0.2-3.9
		c-0.1-0.2-0.1-0.4-0.2-0.6c-0.1-0.2-0.2-0.3-0.4-0.3s-0.4-0.1-0.6-0.2c-0.2,0-0.6,0-0.9,0v-0.9l4.2-1l0.3,2.6h0.1
		c0.7-0.8,1.4-1.5,2.3-2c0.9-0.5,1.9-0.7,2.9-0.7c0.8,0,1.5,0.1,2.2,0.4c0.7,0.3,1.2,0.6,1.5,1.1c0.3,0.4,0.5,0.9,0.6,1.6
		c0.1,0.7,0.2,1.5,0.2,2.7v4.5c0,0.7,0,1.3,0.1,1.7c0,0.4,0.1,0.7,0.3,1c0.1,0.2,0.4,0.4,0.6,0.4c0.3,0.1,0.7,0.1,1.1,0.2v0.9H122
		v-0.9c0.5,0,0.9-0.1,1.2-0.1c0.3-0.1,0.5-0.2,0.7-0.4c0.1-0.2,0.2-0.5,0.3-0.9c0-0.4,0.1-0.9,0.1-1.6v-3.5c0-1-0.1-1.9-0.2-2.6
		c-0.1-0.7-0.3-1.3-0.5-1.7c-0.2-0.4-0.5-0.7-0.9-0.9c-0.4-0.2-0.8-0.3-1.4-0.3c-0.8,0-1.5,0.2-2.2,0.6c-0.7,0.4-1.2,1-1.5,1.7
		c-0.1,0.2-0.2,0.3-0.2,0.5c-0.1,0.2-0.1,0.3-0.1,0.6c0,0.2-0.1,0.5-0.1,0.7c0,0.3,0,0.6,0,1.1V42.5z"/>
	<path d="M135.4,42.5c0,0.7,0,1.3,0.1,1.7c0.1,0.4,0.2,0.7,0.4,1c0.2,0.2,0.4,0.4,0.7,0.5c0.3,0.1,0.7,0.1,1.3,0.2v0.9h-7.5v-0.9
		c0.5,0,1-0.1,1.3-0.2c0.3-0.1,0.6-0.3,0.8-0.5c0.2-0.2,0.3-0.5,0.4-0.9c0.1-0.4,0.1-0.9,0.1-1.5v-3.4c0-1,0-1.9,0-2.6
		c0-0.7-0.1-1.1-0.1-1.4c-0.1-0.4-0.3-0.7-0.6-0.8c-0.3-0.2-0.9-0.2-1.8-0.2v-0.9l5.1-1V42.5z"/>
	<path d="M150.6,44.8h-0.1c-0.6,0.8-1.2,1.3-1.9,1.7c-0.7,0.3-1.4,0.5-2.4,0.5c-1,0-1.9-0.2-2.7-0.5c-0.8-0.3-1.5-0.8-2.1-1.5
		c-0.6-0.6-1-1.4-1.4-2.3c-0.3-0.9-0.5-1.8-0.5-2.9c0-1.1,0.2-2,0.5-3c0.3-0.9,0.8-1.7,1.4-2.4c0.6-0.7,1.3-1.2,2.2-1.6
		c0.8-0.4,1.7-0.6,2.7-0.6s1.9,0.2,2.7,0.6c0.9,0.4,1.6,0.9,2.2,1.6l1.2-1.8h0.7v16.5c0,0.7,0,1.3,0.1,1.8c0,0.4,0.2,0.8,0.3,1
		c0.2,0.2,0.5,0.4,0.8,0.5c0.4,0.1,0.9,0.1,1.5,0.1v0.9h-8v-0.9c0.6,0,1-0.1,1.4-0.2c0.4-0.1,0.6-0.3,0.9-0.5c0.2-0.2,0.4-0.6,0.4-1
		c0.1-0.4,0.1-0.9,0.1-1.5V44.8z M150.5,38.2c0-0.7-0.1-1.3-0.3-1.8c-0.2-0.6-0.5-1-0.8-1.4c-0.4-0.4-0.8-0.7-1.2-0.9
		c-0.5-0.2-1-0.3-1.5-0.3c-0.6,0-1.2,0.1-1.7,0.4c-0.5,0.3-0.9,0.7-1.3,1.2c-0.4,0.5-0.6,1.2-0.8,1.9c-0.2,0.7-0.3,1.6-0.3,2.5
		c0,0.9,0.1,1.8,0.3,2.5c0.2,0.7,0.5,1.4,0.8,1.9c0.4,0.5,0.8,0.9,1.3,1.2c0.5,0.3,1.1,0.4,1.7,0.4c0.7,0,1.4-0.2,1.9-0.5
		c0.6-0.3,1-0.8,1.3-1.4c0.4-0.8,0.6-1.9,0.6-3.2V38.2z"/>
	<path d="M167.6,36.8c0-0.7,0-1.3-0.1-1.7c0-0.4-0.1-0.7-0.3-1c-0.1-0.2-0.4-0.4-0.7-0.5c-0.3-0.1-0.7-0.1-1.2-0.2v-0.9h4.8v8.2
		c0,1,0,1.8,0,2.5c0,0.6,0.1,1.1,0.1,1.4c0,0.2,0.1,0.4,0.2,0.5c0.1,0.1,0.2,0.2,0.4,0.3s0.4,0.1,0.6,0.2c0.3,0,0.6,0,1,0v0.9
		l-4.3,0.3l-0.3-3.2h-0.1c-0.7,1.1-1.4,1.9-2.3,2.4c-0.9,0.5-1.8,0.8-2.7,0.8c-0.7,0-1.4-0.1-2.1-0.4c-0.7-0.3-1.2-0.7-1.6-1.2
		c-0.3-0.4-0.5-0.9-0.6-1.6c-0.1-0.7-0.2-1.6-0.2-2.7v-4.3c0-0.7,0-1.3-0.1-1.7c0-0.4-0.1-0.7-0.3-1c-0.1-0.2-0.4-0.4-0.7-0.5
		c-0.3-0.1-0.7-0.1-1.2-0.2v-0.9h4.8v7.3c0,1.9,0.2,3.4,0.7,4.2c0.4,0.9,1.2,1.3,2.1,1.3c1.5,0,2.7-1,3.6-3.1
		c0.1-0.2,0.2-0.4,0.2-0.6c0.1-0.2,0.1-0.4,0.1-0.6c0-0.2,0.1-0.5,0.1-0.7c0-0.3,0-0.6,0-1V36.8z"/>
	<path d="M186.8,44.2c-1.5,1.8-3.3,2.8-5.5,2.8c-1,0-2-0.2-2.8-0.5c-0.8-0.3-1.6-0.8-2.2-1.5c-0.6-0.6-1.1-1.4-1.4-2.3
		c-0.3-0.9-0.5-1.9-0.5-2.9c0-1.1,0.2-2.1,0.5-3c0.4-0.9,0.8-1.7,1.5-2.4c0.6-0.7,1.4-1.2,2.3-1.6c0.9-0.4,1.9-0.6,2.9-0.6
		c1.7,0,3,0.5,3.9,1.4c0.9,0.9,1.4,2.3,1.4,4c0,0.2,0,0.4-0.1,0.5c-0.1,0.1-0.3,0.1-0.7,0.1h-8.6c0,0.1-0.1,0.3-0.1,0.5
		c0,0.2,0,0.4,0,0.7c0,0.9,0.1,1.8,0.3,2.5c0.2,0.8,0.5,1.4,0.9,1.9c0.4,0.5,0.9,0.9,1.5,1.2c0.6,0.3,1.2,0.4,1.9,0.4
		c0.7,0,1.4-0.2,2-0.5c0.6-0.3,1.3-0.9,1.9-1.6L186.8,44.2z M182.4,37c0.3,0,0.6,0,0.8,0c0.2,0,0.4-0.1,0.5-0.1
		c0.1-0.1,0.2-0.1,0.2-0.2c0-0.1,0.1-0.2,0.1-0.4c0-0.8-0.3-1.5-0.8-2c-0.5-0.5-1.2-0.7-2.1-0.7c-1.9,0-3.1,1.2-3.5,3.4H182.4z"/>
</g>
<g>
	<path d="M101.5,70.8c-2,2.1-4.3,3.1-7.1,3.1c-2,0-3.6-0.6-4.9-1.9c-1.3-1.3-1.9-2.9-1.9-4.9c0-2,0.5-3.9,1.4-5.7
		c0.9-1.8,2.1-3.2,3.6-4.3c1.5-1.1,3-1.6,4.4-1.6c1.2,0,2.2,0.4,2.9,1.1c0.8,0.7,1.1,1.7,1.1,2.9c0,1.5-0.5,2.9-1.4,4
		c-0.9,1.1-2,1.7-3.2,1.7c-0.6,0-1.2-0.2-1.6-0.5c-0.4-0.3-0.6-0.8-0.6-1.3c0-0.5,0.2-0.9,0.5-1.3c0.3,0.5,0.6,0.7,1.1,0.7
		c0.7,0,1.3-0.4,1.9-1.3c0.6-0.8,0.9-1.8,0.9-2.8c0-0.7-0.2-1.3-0.5-1.7c-0.3-0.4-0.7-0.6-1.3-0.6c-0.8,0-1.6,0.5-2.5,1.5
		c-0.9,1-1.6,2.2-2.2,3.8c-0.6,1.5-0.9,3-0.9,4.4c0,1.8,0.5,3.2,1.5,4.4c1,1.1,2.2,1.7,3.8,1.7c1,0,1.8-0.2,2.6-0.7
		c0.8-0.5,1.6-1.2,2.4-2.1V70.8z"/>
	<path d="M113.8,70.8c-2,2.1-3.6,3.1-4.9,3.1c-0.6,0-1-0.2-1.4-0.6c-0.4-0.4-0.6-0.9-0.6-1.5c0-1,0.4-2.4,1.1-4.3
		c0.4-1,0.6-1.6,0.6-2c0-0.3-0.2-0.5-0.5-0.5c-0.3,0-0.8,0.2-1.4,0.7c-0.6,0.5-1.3,1.1-2,1.9c-0.3,1.6-0.4,3.4-0.4,5.6l-2.8,0.7
		c-0.1-0.9-0.2-1.9-0.2-2.9c0-2.5,0.3-4.9,1-7c0.7-2.2,1.8-4.5,3.2-6.9c1.1-0.4,2-0.8,2.8-1.1s1.3-0.4,1.4-0.4
		c0.2,0,0.4,0.2,0.5,0.5c0.1,0.4,0.2,0.8,0.2,1.3c0,0.9-0.3,1.9-0.8,3c-0.5,1.1-1.4,2.4-2.5,3.9c1.1-0.7,1.8-1.1,2.2-1.2
		c0.4-0.2,0.7-0.3,1.1-0.3c0.4,0,0.8,0.2,1,0.5c0.3,0.3,0.4,0.7,0.4,1.2c0,0.8-0.3,1.9-0.9,3.5c-0.6,1.6-0.9,2.6-0.9,3
		c0,0.2,0.1,0.4,0.2,0.5c0.1,0.1,0.2,0.2,0.4,0.2c0.5,0,1.5-0.8,2.9-2.4V70.8z M105.1,65.6c3-3.5,4.4-6.1,4.4-7.8
		c0-0.5-0.1-0.8-0.4-0.8c-0.5,0-1.1,0.8-2,2.5C106.4,61.2,105.7,63.2,105.1,65.6z"/>
	<path d="M119.9,70.8c-1.9,2.1-3.4,3.1-4.4,3.1c-0.5,0-1-0.3-1.3-0.8c-0.4-0.6-0.5-1.3-0.5-2.1c0-1.8,0.6-4.3,1.8-7.5l3.2-0.7h0.1
		l-1.2,4c-0.5,1.6-0.8,2.8-0.8,3.5c0,0.3,0.1,0.5,0.2,0.7c0.1,0.2,0.3,0.3,0.5,0.3c0.3,0,0.6-0.1,1-0.4c0.3-0.2,0.8-0.8,1.6-1.6
		V70.8z M119.6,57.8c0,2-0.7,3-2.2,3c-0.7,0-1.3-0.2-1.8-0.7c0.5-0.7,0.9-1.6,1.1-2.5c0.7,0.4,1.2,0.6,1.6,0.6
		C118.8,58.3,119.2,58.2,119.6,57.8z"/>
	<path d="M128.1,70.8c-1.1,1.1-2.1,1.8-3,2.3c-0.9,0.5-1.7,0.8-2.4,0.8c-0.9,0-1.6-0.4-2.1-1.1c-0.5-0.7-0.8-1.6-0.8-2.8
		c0-1.8,0.4-3.9,1.1-6.4c0.8-2.5,1.7-4.8,2.8-6.9l3.2-1.2c0.1,0,0.2-0.1,0.2-0.1c0.2,0,0.4,0.2,0.6,0.5c0.2,0.4,0.2,0.8,0.2,1.5
		c0,1.7-0.4,3.4-1.2,5c-0.8,1.6-2,3.3-3.7,5.2c-0.1,0.9-0.1,1.5-0.1,1.8c0,0.7,0.1,1.3,0.4,1.8c0.3,0.4,0.6,0.6,1.1,0.6
		c0.4,0,0.9-0.2,1.4-0.5c0.5-0.3,1.3-1,2.3-2.1V70.8z M123.4,65.8c1.1-1.2,1.9-2.5,2.6-4c0.7-1.5,1-2.8,1-3.8c0-0.3,0-0.6-0.1-0.8
		c-0.1-0.2-0.2-0.3-0.3-0.3c-0.3,0-0.8,0.8-1.3,2.3C124.5,60.8,123.9,63,123.4,65.8z"/>
	<path d="M141.4,70.8c-1.2,1.2-2.1,2-2.7,2.5c-0.6,0.4-1.2,0.6-1.7,0.6c-0.6,0-1.1-0.3-1.4-0.9c-0.3-0.6-0.5-1.4-0.5-2.6
		c-0.7,1.1-1.4,2-2.2,2.6c-0.8,0.6-1.5,0.9-2.2,0.9c-0.7,0-1.3-0.3-1.9-1c-0.5-0.7-0.8-1.5-0.8-2.4c0-1.9,0.7-3.6,2-5.2
		c1.3-1.6,2.8-2.4,4.4-2.4c0.4,0,0.8,0.1,1,0.2s0.5,0.3,0.8,0.6L138,56c1.5-0.3,2.4-0.5,2.9-0.5c0.2,0,0.2,0.1,0.2,0.2
		c0,0.1-0.2,1-0.6,2.6c-1.7,6.6-2.5,10.6-2.5,12c0,0.3,0.1,0.6,0.2,0.8c0.1,0.2,0.3,0.3,0.5,0.3c0.5,0,1.4-0.7,2.6-2.1V70.8z
		 M132.4,71.4c0.8,0,1.6-0.7,2.3-2.1c0.7-1.4,1.1-2.7,1.1-3.9c0-0.5-0.1-0.9-0.3-1.2c-0.2-0.3-0.5-0.4-0.9-0.4
		c-0.8,0-1.5,0.7-2.2,2.2c-0.7,1.5-1.1,2.8-1.1,4c0,0.5,0.1,0.8,0.3,1.1C131.8,71.3,132.1,71.4,132.4,71.4z"/>
	<path d="M159.8,70.8c-1,1-1.9,1.8-2.7,2.3c-0.7,0.5-1.5,0.8-2.2,0.8c-0.5,0-1-0.2-1.3-0.6c-0.3-0.4-0.5-0.9-0.5-1.6
		c0-0.9,0.2-2.1,0.7-3.5s0.7-2.3,0.7-2.6c0-0.3-0.1-0.4-0.4-0.4c-0.1,0-0.2,0-0.3,0.1c-0.1,0.1-0.3,0.1-0.4,0.3
		c-0.2,0.1-0.3,0.3-0.5,0.4c-0.2,0.2-0.4,0.4-0.6,0.6c-0.2,0.2-0.4,0.5-0.6,0.7c-0.4,0.4-0.6,0.8-0.6,1.1l-0.4,1.8l-0.8,3l-3.2,0.6
		l1.2-5.2c0.1-0.4,0.2-0.9,0.3-1.7c0.1-0.7,0.2-1.2,0.2-1.3c0-0.3-0.1-0.4-0.3-0.4c-0.1,0-0.1,0-0.2,0.1c-0.1,0.1-0.3,0.1-0.4,0.3
		c-0.2,0.1-0.4,0.3-0.6,0.5c-0.2,0.2-0.5,0.4-0.7,0.7c-0.3,0.3-0.6,0.6-0.8,0.9c-0.4,0.5-0.6,1-0.7,1.6c-0.1,0.7-0.2,1.4-0.3,2
		c-0.1,0.6-0.1,1.2-0.1,1.9l-2.8,0.7c-0.1-1-0.1-1.8-0.1-2.4c0-1.5,0.2-2.9,0.5-4c0.3-1.1,0.8-2.5,1.5-4l3-0.6c-0.5,1.4-1,2.7-1.3,4
		c2.2-2.6,3.9-4,5.1-4c0.4,0,0.8,0.2,1.1,0.5c0.3,0.4,0.4,0.8,0.4,1.4c0,0.3,0,0.8-0.1,1.5c1.4-1.4,2.4-2.4,3-2.8
		c0.6-0.4,1.2-0.7,1.7-0.7c0.5,0,0.8,0.2,1.1,0.6c0.3,0.4,0.4,0.8,0.4,1.4c0,0.9-0.2,2.1-0.7,3.5c-0.5,1.4-0.7,2.4-0.7,2.8
		c0,0.5,0.2,0.7,0.5,0.7c0.2,0,0.5-0.1,0.9-0.4c0.4-0.3,1.1-1,2-2V70.8z"/>
	<path d="M165.9,70.8c-1.9,2.1-3.4,3.1-4.4,3.1c-0.5,0-1-0.3-1.3-0.8c-0.4-0.6-0.5-1.3-0.5-2.1c0-1.8,0.6-4.3,1.8-7.5l3.2-0.7h0.1
		l-1.2,4c-0.5,1.6-0.8,2.8-0.8,3.5c0,0.3,0.1,0.5,0.2,0.7c0.1,0.2,0.3,0.3,0.5,0.3c0.3,0,0.6-0.1,1-0.4c0.3-0.2,0.8-0.8,1.6-1.6
		V70.8z M165.7,57.8c0,2-0.7,3-2.2,3c-0.7,0-1.3-0.2-1.8-0.7c0.5-0.7,0.9-1.6,1.1-2.5c0.7,0.4,1.2,0.6,1.6,0.6
		C164.8,58.3,165.2,58.2,165.7,57.8z"/>
	<path d="M178.1,70.8c-1.9,2.1-3.6,3.1-4.9,3.1c-0.6,0-1-0.2-1.3-0.6c-0.3-0.4-0.5-0.9-0.5-1.6c0-0.9,0.4-2.3,1.1-4.2
		c0.4-1,0.6-1.6,0.6-1.9c0-0.3-0.1-0.4-0.3-0.4c-0.1,0-0.3,0.1-0.5,0.2c-0.2,0.1-0.4,0.3-0.6,0.5c-0.2,0.2-0.4,0.4-0.7,0.7
		c-0.2,0.2-0.5,0.5-0.7,0.8l-0.7,0.8c-0.3,0.4-0.5,0.8-0.6,1.2c-0.1,0.7-0.2,1.4-0.2,2c0,0.4,0,1.1,0,1.8l-2.8,0.7
		c-0.1-1.1-0.1-2-0.1-2.6c0-1.4,0.2-2.7,0.5-3.9c0.3-1.2,0.8-2.6,1.5-4.1l3-0.6c-0.6,1.8-1.1,3.1-1.3,4.1c1.4-1.5,2.4-2.6,3.2-3.2
		c0.8-0.6,1.5-0.9,2.1-0.9c0.4,0,0.8,0.2,1.1,0.5c0.3,0.3,0.4,0.7,0.4,1.2c0,0.8-0.4,2.1-1.1,4c-0.5,1.3-0.7,2.1-0.7,2.5
		c0,0.5,0.2,0.8,0.6,0.8c0.6,0,1.6-0.8,2.9-2.4V70.8z"/>
	<path d="M191.4,70.8c-1.2,1.2-2.1,2-2.7,2.5c-0.6,0.4-1.2,0.6-1.7,0.6c-0.6,0-1.1-0.3-1.4-0.9c-0.3-0.6-0.5-1.4-0.5-2.6
		c-0.7,1.1-1.4,2-2.2,2.6s-1.5,0.9-2.2,0.9c-0.7,0-1.3-0.3-1.9-1c-0.5-0.7-0.8-1.5-0.8-2.4c0-1.9,0.7-3.6,2-5.2
		c1.3-1.6,2.8-2.4,4.4-2.4c0.4,0,0.8,0.1,1,0.2s0.5,0.3,0.8,0.6L188,56c1.5-0.3,2.4-0.5,2.9-0.5c0.2,0,0.2,0.1,0.2,0.2
		c0,0.1-0.2,1-0.6,2.6c-1.7,6.6-2.5,10.6-2.5,12c0,0.3,0.1,0.6,0.2,0.8c0.1,0.2,0.3,0.3,0.5,0.3c0.5,0,1.4-0.7,2.6-2.1V70.8z
		 M182.4,71.4c0.8,0,1.6-0.7,2.3-2.1c0.7-1.4,1.1-2.7,1.1-3.9c0-0.5-0.1-0.9-0.3-1.2c-0.2-0.3-0.5-0.4-0.9-0.4
		c-0.8,0-1.5,0.7-2.2,2.2c-0.7,1.5-1.1,2.8-1.1,4c0,0.5,0.1,0.8,0.3,1.1C181.8,71.3,182.1,71.4,182.4,71.4z"/>
	<path d="M200.7,70.8c-1.1,1.1-2,1.8-2.8,2.3c-0.8,0.5-1.8,0.8-2.8,0.8c-1.1,0-2-0.4-2.7-1.1c-0.7-0.7-1-1.7-1-2.9
		c0-1.8,0.6-3.4,1.8-4.9c1.2-1.5,2.6-2.2,4.1-2.2c0.8,0,1.4,0.2,1.9,0.6c0.5,0.4,0.7,0.9,0.7,1.6c0,1.8-1.8,3.2-5.5,4.3
		c0.3,1.7,1.2,2.5,2.6,2.5c0.5,0,1.1-0.1,1.6-0.5c0.5-0.3,1.3-1,2.3-2V70.8z M194.2,68.4c2.1-0.6,3.2-1.7,3.2-3.4
		c0-0.8-0.3-1.2-0.9-1.2c-0.5,0-1.1,0.4-1.6,1.3C194.5,65.9,194.2,67.1,194.2,68.4z"/>
	<path d="M210.1,70.8c-2.1,2.1-3.7,3.1-4.8,3.1c-0.5,0-0.9-0.2-1.3-0.7c-0.3-0.4-0.5-1-0.5-1.6c0-1.2,0.6-2.8,1.9-4.8
		c-0.6,0.3-1.3,0.5-2,0.7c-0.5,1-1.4,2.1-2.5,3.3h-0.3v-1.1c0.6-0.7,1.2-1.4,1.8-2.2c-0.7-0.3-1.1-0.8-1.1-1.4
		c0-0.7,0.2-1.3,0.7-2.1c0.4-0.7,1-1.1,1.8-1.1c0.6,0,1,0.3,1,1c0,0.5-0.2,1.3-0.6,2.3c1.4-0.2,2.6-1.2,3.6-3.2l1.1-0.1l-1.2,3.2
		c-0.5,1.4-0.8,2.3-0.9,2.8c-0.1,0.5-0.2,0.9-0.2,1.3c0,0.4,0.1,0.6,0.2,0.9c0.2,0.2,0.4,0.3,0.7,0.3c0.3,0,0.6-0.1,0.9-0.3
		c0.3-0.2,0.9-0.8,1.8-1.7V70.8z"/>
	<path d="M213.9,63.3c0.6-0.2,1.2-0.3,1.7-0.4c0.6-0.1,0.9-0.1,1-0.1c0.1,0,0.1,0,0.1,0.1c0,0.1,0,0.3-0.1,0.4
		c-0.1,0.4-0.2,0.8-0.2,1.1c0,0.4,0.3,1,0.7,1.8c0.5,0.8,0.7,1.5,0.7,2.1c0,1.3-0.6,2.5-1.8,3.7c-1.2,1.2-2.5,1.8-3.8,1.8
		c-0.6,0-1.1-0.2-1.5-0.5c-0.5-0.3-0.7-0.6-0.7-1c0-0.2,0.2-0.6,0.7-1.2c0.5-0.6,0.8-0.9,1-0.9c0.3,0,0.5,0.3,0.7,1
		c0.2,0.7,0.6,1,1.1,1c0.5,0,1-0.2,1.4-0.7c0.4-0.5,0.7-1,0.7-1.5c0-0.5-0.3-1.2-0.8-2.1c-0.6-0.9-0.9-1.6-1.1-2.2
		c-1,1.6-2.2,3.2-3.7,4.9h-0.3v-1.1C211.8,67.4,213.2,65.3,213.9,63.3z"/>
</g>
<g>
	<g id="XMLID_6_">
		<path class="st0" d="M133.8,19c0,0-0.6-4.3,2.9-5.9c3.5-1.5,3.5-3.4,3.5-3.4s4.8,4.6,0.7,9.3l-3.6,2.1L133.8,19z"/>
	</g>
	<g id="XMLID_5_">
		<path class="st0" d="M136.3,22.4c0,0,0.6,4.3-2.9,5.9c-3.5,1.5-3.5,3.4-3.5,3.4s-4.8-4.6-0.7-9.3l3.6-2.1L136.3,22.4z"/>
	</g>
	<path class="st1" d="M132.9,20.7c0,0-3.6-2.7-2.2-6.1c1.3-3.5,0-4.8,0-4.8s6.7-0.1,7.3,6.1l-1,4L132.9,20.7z"/>
	<path class="st1" d="M137.2,21c0,0,3.6,2.7,2.2,6.1c-1.3,3.5,0,4.8,0,4.8s-6.7,0.1-7.3-6.1l1-4L137.2,21z"/>
	<g id="XMLID_4_">
		<path class="st2" d="M135.4,18.6c0,0,2.8-3.5,6.3-2.2c3.6,1.3,5,0,5,0s0.1,6.5-6.2,7.1l-4.1-0.9L135.4,18.6z"/>
	</g>
	<g id="XMLID_3_">
		<path class="st2" d="M134.7,22.7c0,0-2.8,3.5-6.3,2.2c-3.6-1.3-5,0-5,0s-0.1-6.5,6.2-7.1l4.1,0.9L134.7,22.7z"/>
	</g>
	<g id="XMLID_2_">
		<path class="st3" d="M136.4,19.6c0,0,4.5-0.6,6.1,2.8c1.6,3.4,3.5,3.4,3.5,3.4s-4.7,4.7-9.6,0.7l-2.2-3.5L136.4,19.6z"/>
	</g>
	<g id="XMLID_1_">
		<path class="st3" d="M133,22c0,0-4.5,0.6-6.1-2.8s-3.5-3.4-3.5-3.4s4.7-4.7,9.6-0.7l2.2,3.5L133,22z"/>
	</g>
	<linearGradient id="SVGID_1_" gradientUnits="userSpaceOnUse" x1="132.5107" y1="18.2205" x2="137.382" y2="23.0918">
		<stop  offset="0" style="stop-color:#FFFFFF"/>
		<stop  offset="2.680486e-02" style="stop-color:#CFEDF3"/>
		<stop  offset="6.086304e-02" style="stop-color:#99D9E5"/>
		<stop  offset="9.530314e-02" style="stop-color:#6AC7D9"/>
		<stop  offset="0.1294" style="stop-color:#44B9CF"/>
		<stop  offset="0.163" style="stop-color:#26AEC8"/>
		<stop  offset="0.1961" style="stop-color:#11A6C2"/>
		<stop  offset="0.2284" style="stop-color:#04A2BF"/>
		<stop  offset="0.2589" style="stop-color:#00A0BE"/>
		<stop  offset="0.2759" style="stop-color:#11A7C2"/>
		<stop  offset="0.378" style="stop-color:#76CCDC"/>
		<stop  offset="0.4604" style="stop-color:#C0E7EF"/>
		<stop  offset="0.5189" style="stop-color:#EDF8FB"/>
		<stop  offset="0.5482" style="stop-color:#FFFFFF"/>
		<stop  offset="0.5827" style="stop-color:#F7FCFD"/>
		<stop  offset="0.6356" style="stop-color:#E2F4F8"/>
		<stop  offset="0.7005" style="stop-color:#BFE7EF"/>
		<stop  offset="0.7748" style="stop-color:#8ED5E2"/>
		<stop  offset="0.857" style="stop-color:#4FBDD2"/>
		<stop  offset="0.9448" style="stop-color:#04A2BF"/>
		<stop  offset="0.9492" style="stop-color:#00A0BE"/>
	</linearGradient>
	<linearGradient id="SVGID_2_" gradientUnits="userSpaceOnUse" x1="131.0768" y1="20.6561" x2="138.8158" y2="20.6561">
		<stop  offset="4.486252e-02" style="stop-color:#BD792A"/>
		<stop  offset="7.576112e-02" style="stop-color:#C68A39"/>
		<stop  offset="0.1368" style="stop-color:#DDB75E"/>
		<stop  offset="0.1896" style="stop-color:#F3E283"/>
		<stop  offset="0.2776" style="stop-color:#D7AC55"/>
		<stop  offset="0.3674" style="stop-color:#BD792A"/>
		<stop  offset="0.5348" style="stop-color:#F5D064"/>
		<stop  offset="0.6719" style="stop-color:#BD792A"/>
		<stop  offset="0.7992" style="stop-color:#D78E29"/>
		<stop  offset="0.861" style="stop-color:#D8902B"/>
		<stop  offset="0.8833" style="stop-color:#DB9731"/>
		<stop  offset="0.8992" style="stop-color:#E0A23B"/>
		<stop  offset="0.912" style="stop-color:#E8B34A"/>
		<stop  offset="0.9229" style="stop-color:#F2C95E"/>
		<stop  offset="0.9257" style="stop-color:#F5D064"/>
		<stop  offset="1" style="stop-color:#BD792A"/>
	</linearGradient>
	<ellipse class="st4" cx="134.9" cy="20.7" rx="3.5" ry="3.4"/>
	<path class="st3" d="M121.5,25.4c0,0,0.3,0.5-0.8,1.5c-0.6,0.5-2.2,0.7-2.5,1.6c-0.3,1,0.9,2.1,2.8,2.3c2,0.2,2.6-1,2-2.7
		C122.4,26.3,121.5,25.4,121.5,25.4z"/>
	<path class="st0" d="M120.6,9.7c0,0,0,0.7-1.5,1.9c-0.8,0.6-2.6,0.6-3.4,1.8c-0.8,1.3-0.2,3,1.7,3.6c1.9,0.6,3.1-0.9,3.4-3.4
		C121.1,11.1,120.6,9.7,120.6,9.7z"/>
	<path class="st3" d="M132.4,8.8c0,0,0.1-0.7,1.8-1.6c0.9-0.5,2.7-0.1,3.7-1.2c1-1.1,0.7-2.9-1-3.8c-1.7-0.9-3.2,0.4-4,2.8
		C132.2,7.3,132.4,8.8,132.4,8.8z"/>
	<path class="st1" d="M153.1,11.2c0,0-0.4,0.6-2.4,0.6c-1.1,0-2.4-1.1-3.8-0.6c-1.4,0.5-2,2.2-1,3.9c1.1,1.6,3,1.2,4.8-0.6
		C152.6,12.6,153.1,11.2,153.1,11.2z"/>
	<path class="st2" d="M153,24.3c0,0-0.4,0.6-2.3,0.7c-1.1,0.1-2.5-1-3.9-0.3c-1.4,0.6-1.8,2.4-0.6,3.9c1.2,1.5,3.1,0.9,4.8-1
		C152.6,25.7,153,24.3,153,24.3z"/>
</g>
</svg>
